<svg width="180" height="215" viewBox="0 0 180 215" fill="none" xmlns="http://www.w3.org/2000/svg">
<g id="Group 7">
<path id="Vector 2" d="M154.525 68.1473C186.545 125.786 104.881 213.5 87.6626 213.5C70.4443 213.5 2.27965 151.485 22.8207 81.7309C43.3618 11.9772 122.505 10.5087 154.525 68.1473Z" stroke="black" stroke-width="2"/>
<g id="Group 1">
<path id="Ellipse 5" d="M157.875 114.173C157.923 125.635 154.676 135.983 149.438 143.448C144.199 150.915 137.029 155.428 129.197 155.461C121.365 155.494 114.158 151.041 108.857 143.617C103.557 136.196 100.224 125.875 100.176 114.413C100.128 102.951 103.375 92.6026 108.613 85.1376C113.852 77.6701 121.022 73.1571 128.854 73.1244C136.686 73.0918 143.893 77.5449 149.194 84.9684C154.494 92.3895 157.828 102.71 157.875 114.173Z" fill="white" stroke="black" stroke-width="2"/>
<path id="Ellipse 6" d="M147.022 113.782C147.052 120.994 145.008 127.49 141.731 132.161C138.451 136.835 133.998 139.614 129.174 139.635C124.351 139.655 119.875 136.913 116.556 132.266C113.24 127.622 111.142 121.144 111.112 113.932C111.082 106.719 113.125 100.224 116.403 95.5522C119.683 90.878 124.136 88.099 128.959 88.0789C133.783 88.0588 138.259 90.8006 141.578 95.4472C144.894 100.091 146.992 106.57 147.022 113.782Z" fill="black" stroke="black" stroke-width="2"/>
</g>
<g id="Group 2">
<path id="Ellipse 5_2" d="M77.8753 114.173C77.9231 125.635 74.6759 135.983 69.4382 143.448C64.1988 150.915 57.0291 155.428 49.1971 155.461C41.3652 155.494 34.1581 151.041 28.8567 143.617C23.5569 136.196 20.2235 125.875 20.1758 114.413C20.128 102.951 23.3752 92.6026 28.6129 85.1376C33.8523 77.6701 41.022 73.1571 48.8539 73.1244C56.6859 73.0918 63.8929 77.5449 69.1944 84.9684C74.4942 92.3895 77.8275 102.71 77.8753 114.173Z" fill="white" stroke="black" stroke-width="2"/>
<path id="Ellipse 6_2" d="M67.0221 113.782C67.0522 120.994 65.0084 127.49 61.7306 132.161C58.4511 136.835 53.9979 139.614 49.1743 139.635C44.3508 139.655 39.8746 136.913 36.5562 132.266C33.2396 127.622 31.1417 121.144 31.1116 113.932C31.0816 106.719 33.1254 100.224 36.4032 95.5522C39.6827 90.878 44.1359 88.099 48.9594 88.0789C53.7829 88.0588 58.2592 90.8006 61.5775 95.4472C64.8942 100.091 66.9921 106.57 67.0221 113.782Z" fill="black" stroke="black" stroke-width="2"/>
</g>
<path id="Vector 5" d="M171.949 10.002C171.949 10.002 146.174 11.2248 127 44" stroke="black" stroke-width="2"/>
<path id="Vector 6" d="M7.99998 9C7.99998 9 33.775 10.2228 52.9492 42.998" stroke="black" stroke-width="2"/>
<ellipse id="Ellipse 7" cx="172" cy="8.5" rx="8" ry="8.5" fill="#EB6161"/>
<ellipse id="Ellipse 8" cx="8" cy="8.5" rx="8" ry="8.5" fill="#036FED"/>
</g>
</svg>
